<?xml version="1.0" encoding="UTF-8"?>
<svg xmlns="http://www.w3.org/2000/svg" viewBox="0 0 1080 300" width="100%" role="img" aria-labelledby="svgTitle svgDesc">
  <title id="svgTitle">System Context</title>
  <desc id="svgDesc">Data flow from loan application data through the feature availability policy, leakage-screened preprocessing, model training, probability calibration, and threshold analysis to validation and benchmark reports reviewed by an analyst or risk reviewer. Diagnostic and validation evidence system, not a deployed decision engine.</desc>
  <defs>
    <marker id="arrowhead" markerWidth="8" markerHeight="8" refX="7" refY="4" orient="auto" markerUnits="userSpaceOnUse">
      <path d="M0,0 L8,4 L0,8 Z" fill="#475569"/>
    </marker>
  </defs>
  <style>
    .bg { fill:#ffffff; }
    .node { fill:#f8fafc; stroke:#2563eb; stroke-width:1.5; }
    .label { font-family: Arial, Helvetica, sans-serif; font-size:13px; fill:#1e293b; text-anchor:middle; }
    .edge { stroke:#475569; stroke-width:2; fill:none; marker-end:url(#arrowhead); }
  </style>
  <rect class="bg" x="0" y="0" width="1080" height="300"/>

  <!-- edges -->
  <line class="edge" x1="260" y1="70" x2="298" y2="70"/>
  <line class="edge" x1="520" y1="70" x2="558" y2="70"/>
  <line class="edge" x1="780" y1="70" x2="818" y2="70"/>
  <line class="edge" x1="930" y1="100" x2="930" y2="198"/>
  <line class="edge" x1="818" y1="230" x2="782" y2="230"/>
  <line class="edge" x1="558" y1="230" x2="522" y2="230"/>
  <line class="edge" x1="298" y1="230" x2="262" y2="230"/>

  <!-- nodes -->
  <rect class="node" x="40" y="40" width="220" height="60" rx="10"/>
  <text class="label" x="150" y="75">Loan application data</text>

  <rect class="node" x="300" y="40" width="220" height="60" rx="10"/>
  <text class="label" x="410" y="64">Feature availability</text>
  <text class="label" x="410" y="80">policy</text>

  <rect class="node" x="560" y="40" width="220" height="60" rx="10"/>
  <text class="label" x="670" y="64">Leakage-screened</text>
  <text class="label" x="670" y="80">preprocessing</text>

  <rect class="node" x="820" y="40" width="220" height="60" rx="10"/>
  <text class="label" x="930" y="75">Model training</text>

  <rect class="node" x="820" y="200" width="220" height="60" rx="10"/>
  <text class="label" x="930" y="235">Probability calibration</text>

  <rect class="node" x="560" y="200" width="220" height="60" rx="10"/>
  <text class="label" x="670" y="235">Threshold analysis</text>

  <rect class="node" x="300" y="200" width="220" height="60" rx="10"/>
  <text class="label" x="410" y="224">Validation and</text>
  <text class="label" x="410" y="240">benchmark reports</text>

  <rect class="node" x="40" y="200" width="220" height="60" rx="10"/>
  <text class="label" x="150" y="235">Analyst or risk reviewer</text>
</svg>
